<svg width="141.000000" height="44.000000" viewBox="0 0 141 44" fill="none" xmlns="http://www.w3.org/2000/svg" xmlns:xlink="http://www.w3.org/1999/xlink">
	<desc>
			Created with Pixso.
	</desc>
	<defs/>
	<path id="Ashu The designer" d="M27.67 11.35L27.88 14.23C27.95 14.97 28.46 15.16 28.46 15.63L28.46 15.69C28.46 15.88 28.31 16 28.08 16L24.89 16C24.65 16 24.51 15.88 24.51 15.69L24.51 15.63C24.51 15.43 24.62 15.27 24.75 15.11C24.92 14.89 25.1 14.65 25.08 14.23L24.92 11.26C24.84 9.8 24.54 9.21 23.8 9.21C23.1 9.21 22.76 9.83 22.76 10.76L22.76 14.25C22.76 14.99 23.48 15.16 23.48 15.63L23.48 15.69C23.48 15.88 23.32 16 23.1 16L19.63 16C19.4 16 19.26 15.88 19.26 15.69L19.26 15.63C19.26 15.16 19.96 14.99 19.96 14.25L19.96 6.83C19.96 6.07 19.18 6 19.18 5.55L19.18 5.5C19.18 5.31 19.32 5.15 19.55 5.05L22.08 3.93C22.44 3.77 22.68 3.9 22.68 4.27L22.68 8.91C23.15 8.43 23.82 8.16 24.63 8.16C26.03 8.16 27.5 8.94 27.67 11.35ZM59.9 11.35L60.11 14.23C60.17 14.97 60.68 15.16 60.68 15.63L60.68 15.69C60.68 15.88 60.54 16 60.3 16L57.12 16C56.87 16 56.73 15.88 56.73 15.69L56.73 15.63C56.73 15.43 56.85 15.27 56.97 15.11C57.14 14.89 57.33 14.65 57.31 14.23L57.15 11.26C57.07 9.8 56.76 9.21 56.03 9.21C55.32 9.21 54.99 9.83 54.99 10.76L54.99 14.25C54.99 14.99 55.71 15.16 55.71 15.63L55.71 15.69C55.71 15.88 55.55 16 55.32 16L51.85 16C51.63 16 51.48 15.88 51.48 15.69L51.48 15.63C51.48 15.16 52.19 14.99 52.19 14.25L52.19 6.83C52.19 6.07 51.4 6 51.4 5.55L51.4 5.5C51.4 5.31 51.55 5.15 51.77 5.05L54.3 3.93C54.67 3.77 54.91 3.9 54.91 4.27L54.91 8.91C55.37 8.43 56.04 8.16 56.86 8.16C58.25 8.16 59.72 8.94 59.9 11.35ZM104.09 5.77C104.09 6.67 103.36 7.37 102.27 7.37C101.16 7.37 100.43 6.67 100.43 5.77C100.43 4.86 101.16 4.17 102.27 4.17C103.36 4.17 104.09 4.86 104.09 5.77ZM6.84 5.4L10.49 14.25C10.83 15.08 11.42 15.18 11.42 15.63L11.42 15.69C11.42 15.88 11.28 16 11.03 16L6.89 16C6.67 16 6.52 15.88 6.52 15.69L6.52 15.63C6.52 15.45 6.68 15.31 6.85 15.16C7.09 14.93 7.36 14.69 7.21 14.25L6.86 13.26L2.8 13.26L2.44 14.25C2.29 14.69 2.56 14.93 2.81 15.16C2.98 15.31 3.13 15.45 3.13 15.63L3.13 15.69C3.13 15.88 2.99 16 2.75 16L0.38 16C0.14 16 0 15.88 0 15.69L0 15.63C0 15.18 0.59 15.1 0.92 14.25L3.92 6.51C4.06 6.13 3.81 5.79 3.59 5.5C3.45 5.32 3.32 5.15 3.32 5L3.32 4.94C3.32 4.75 3.47 4.64 3.69 4.64L5.74 4.64C6.3 4.64 6.62 4.87 6.84 5.4ZM47.79 16L44.28 16C44.06 16 43.92 15.88 43.92 15.69L43.92 15.63C43.92 15.18 44.6 14.99 44.6 14.25L44.6 5.83L43.76 5.83C42.68 5.83 42.49 7.77 41.74 7.77L41.47 7.77C41.2 7.77 41.04 7.6 41.07 7.31L41.39 5.13C41.42 4.78 41.58 4.64 41.93 4.64L50.15 4.64C50.51 4.64 50.65 4.78 50.7 5.13L51.04 7.32C51.08 7.6 50.91 7.77 50.63 7.77L50.36 7.77C49.61 7.77 49.4 5.83 48.31 5.83L47.48 5.83L47.48 14.25C47.48 14.99 48.17 15.18 48.17 15.63L48.17 15.69C48.17 15.88 48.03 16 47.79 16ZM77.47 16L72.89 16C72.67 16 72.51 15.88 72.51 15.69L72.51 15.63C72.51 15.18 73.15 14.99 73.15 14.25L73.15 6.38C73.15 5.64 72.51 5.45 72.51 5L72.51 4.94C72.51 4.75 72.67 4.64 72.89 4.64L76.67 4.64C81.21 4.64 83.74 7.02 83.74 10.38C83.74 13.71 81.28 16 77.47 16ZM76.01 13.23C76.01 14.27 76.52 14.87 77.4 14.87L78.04 14.87C79.55 14.87 80.7 13.82 80.7 11.72C80.7 8.6 79.1 5.76 76.91 5.76L76.73 5.76C76.35 5.76 76.01 5.95 76.01 6.52L76.01 13.23ZM4.83 7.6L3.23 12.06L6.43 12.06L4.83 7.6ZM122.44 11.48L122.65 14.25C122.7 14.99 123.23 15.18 123.23 15.64L123.23 15.71C123.23 15.9 123.07 16.01 122.84 16.01L119.64 16.01C119.4 16.01 119.26 15.9 119.26 15.71L119.26 15.64C119.26 15.44 119.38 15.29 119.51 15.13C119.67 14.91 119.86 14.67 119.84 14.25L119.68 11.39C119.59 9.8 119.29 9.21 118.57 9.21C117.87 9.21 117.53 9.83 117.53 10.76L117.53 14.25C117.53 14.99 118.24 15.18 118.24 15.64L118.24 15.71C118.24 15.9 118.09 16.01 117.85 16.01L114.4 16.01C114.16 16.01 114.01 15.9 114.01 15.71L114.01 15.64C114.01 15.18 114.72 14.99 114.72 14.25L114.72 11.1C114.72 10.33 113.87 10.23 113.87 9.77L113.87 9.72C113.87 9.53 114.03 9.44 114.25 9.32L116.49 8.22C116.89 8.01 117.1 8.28 117.1 8.6L117.1 9.35C117.53 8.59 118.33 8.16 119.39 8.16C120.78 8.16 122.25 8.94 122.44 11.48ZM134.79 9.74C135.14 8.71 135.9 8.16 137 8.16C137.95 8.16 138.51 8.84 138.51 9.74C138.51 10.54 138.2 11.24 137.27 11.24C135.82 11.24 136.47 9.74 135.68 9.74C135.17 9.74 135.08 10.57 135.08 11.28L135.08 14.25C135.08 14.99 135.93 15.18 135.93 15.63L135.93 15.69C135.93 15.88 135.77 16 135.55 16L132.11 16C131.88 16 131.72 15.88 131.72 15.69L131.72 15.63C131.72 15.18 132.36 14.99 132.36 14.25L132.36 11.07C132.36 10.32 131.6 10.25 131.6 9.79L131.6 9.74C131.6 9.55 131.72 9.4 131.96 9.28L134.22 8.22C134.63 8.03 134.79 8.25 134.79 8.57L134.79 9.74ZM104 16L100.56 16C100.32 16 100.17 15.88 100.17 15.69L100.17 15.63C100.17 15.16 100.81 14.97 100.81 14.23L100.81 11.19C100.81 10.46 100.17 10.23 100.17 9.85L100.17 9.79C100.17 9.61 100.32 9.53 100.54 9.42L102.95 8.23C103.4 8.01 103.68 8.27 103.68 8.57L103.68 14.23C103.68 14.97 104.4 15.16 104.4 15.63L104.4 15.69C104.4 15.88 104.24 16 104 16ZM18.59 13.79C18.59 15.12 17.32 16.14 15.1 16.14C13.08 16.14 11.58 15.39 11.58 14.27C11.58 13.55 12.07 13.24 12.71 13.24C14.32 13.24 13.77 15.44 15.1 15.44C15.58 15.44 15.96 15.19 15.96 14.55C15.96 12.46 11.72 13.69 11.72 10.59C11.72 9.16 13.1 8.16 15.1 8.16C17.13 8.16 18.46 9.03 18.46 10.07C18.46 10.64 17.98 11.05 17.39 11.05C15.84 11.05 16.35 8.89 15.24 8.89C14.75 8.89 14.49 9.34 14.49 9.8C14.49 12 18.59 10.84 18.59 13.79ZM66.25 14.17C66.94 14.17 67.56 13.85 67.85 13.47C68.07 13.24 68.46 13.34 68.44 13.69C68.41 14.57 67.29 16.16 65.2 16.16C62.88 16.16 61.24 14.54 61.24 12.11C61.24 9.74 63.08 8.16 65.18 8.16C67.27 8.16 68.23 9.34 68.23 10.35C68.23 10.83 67.98 11.15 67.61 11.34L64.43 13.13C64.84 13.79 65.47 14.17 66.25 14.17ZM89.51 14.17C90.2 14.17 90.83 13.85 91.12 13.47C91.34 13.24 91.72 13.34 91.71 13.69C91.67 14.57 90.55 16.16 88.46 16.16C86.14 16.16 84.51 14.54 84.51 12.11C84.51 9.74 86.35 8.16 88.44 8.16C90.54 8.16 91.5 9.34 91.5 10.35C91.5 10.83 91.24 11.15 90.87 11.34L87.69 13.13C88.11 13.79 88.73 14.17 89.51 14.17ZM99.35 13.79C99.35 15.12 98.09 16.14 95.87 16.14C93.85 16.14 92.35 15.39 92.35 14.27C92.35 13.55 92.84 13.24 93.48 13.24C95.08 13.24 94.54 15.44 95.87 15.44C96.35 15.44 96.73 15.19 96.73 14.55C96.73 12.46 92.49 13.69 92.49 10.59C92.49 9.16 93.87 8.16 95.87 8.16C97.9 8.16 99.23 9.03 99.23 10.07C99.23 10.64 98.75 11.05 98.15 11.05C96.6 11.05 97.12 8.89 96.01 8.89C95.51 8.89 95.26 9.34 95.26 9.8C95.26 12 99.35 10.84 99.35 13.79ZM108.97 8.16C109.98 8.16 110.67 8.32 112.11 8.32C113.15 8.32 113.32 8.48 113.28 8.84C113.21 9.47 112.59 9.4 112.07 9.56C112.54 10.09 112.86 10.8 112.86 11.55C112.86 12.78 112.2 13.76 111.13 14.3C112.57 14.6 113.02 15.21 113.02 16.01C113.02 17.29 111.18 18.16 108.84 18.16C106.55 18.16 105.07 17.42 105.07 16.06C105.07 15.56 105.42 15 106.17 15C107.63 15 107.39 17.37 108.86 17.39C109.71 17.4 110.19 16.84 110.19 16.04C110.19 15.35 109.96 14.87 109.52 14.75C109.34 14.76 109.13 14.78 108.94 14.78C106.7 14.78 105.05 13.47 105.05 11.56C105.05 9.53 106.67 8.16 108.97 8.16ZM128.78 14.17C129.47 14.17 130.09 13.85 130.38 13.47C130.6 13.24 130.99 13.34 130.97 13.69C130.94 14.57 129.82 16.16 127.72 16.16C125.4 16.16 123.77 14.54 123.77 12.11C123.77 9.74 125.61 8.16 127.71 8.16C129.8 8.16 130.76 9.34 130.76 10.35C130.76 10.83 130.51 11.15 130.14 11.34L126.95 13.13C127.37 13.79 127.99 14.17 128.78 14.17ZM37.24 8.55L37.24 14.23C37.24 15.53 37.93 14.91 37.93 15.56C37.93 16 37.31 16.09 36.28 16.09C35.29 16.09 34.86 15.85 34.78 15.16C34.36 15.8 33.61 16.16 32.52 16.16C30.91 16.16 29.53 15.05 29.53 13L29.53 10.33C29.53 9.58 28.89 9.39 28.89 8.99L28.89 8.92C28.89 8.75 29.03 8.59 29.26 8.55L31.64 8.23C32.11 8.17 32.39 8.27 32.39 8.55L32.35 13.29C32.33 14.6 32.67 15.1 33.37 15.1C33.96 15.1 34.43 14.48 34.43 13.5L34.43 10.33C34.43 9.58 33.79 9.39 33.79 8.99L33.79 8.92C33.79 8.75 33.93 8.59 34.16 8.55L36.54 8.23C37 8.17 37.24 8.27 37.24 8.55ZM65.96 10.59C65.96 10.07 65.71 8.94 64.89 8.94C64.23 8.94 63.82 9.69 63.82 10.62C63.82 11.24 63.9 11.82 64.06 12.3L65.55 11.4C65.8 11.23 65.96 10.92 65.96 10.59ZM89.23 10.59C89.23 10.07 88.97 8.94 88.16 8.94C87.5 8.94 87.08 9.69 87.08 10.62C87.08 11.24 87.16 11.82 87.32 12.3L88.81 11.4C89.07 11.23 89.23 10.92 89.23 10.59ZM108.55 8.94C108.04 8.94 107.72 9.44 107.72 10.28C107.72 11.88 108.48 13.98 109.34 13.98C109.88 13.98 110.2 13.47 110.2 12.64C110.2 11.31 109.52 8.94 108.55 8.94ZM128.49 10.59C128.49 10.07 128.24 8.94 127.42 8.94C126.76 8.94 126.35 9.69 126.35 10.62C126.35 11.24 126.43 11.82 126.59 12.3L128.08 11.4C128.33 11.23 128.49 10.92 128.49 10.59Z" fill="#121314" fill-opacity="1.000000" fill-rule="evenodd"/>
	<path id="UI/UX Designer" d="M34.8 40.4L35.52 40.4L41.12 27.79L40.39 27.79L34.8 40.4ZM87.92 30.64Q88.09 30.72 88.29 30.72Q88.46 30.72 88.6 30.66Q88.75 30.6 88.86 30.48Q88.99 30.36 89.04 30.21Q89.1 30.07 89.1 29.91Q89.1 29.75 89.04 29.6Q88.98 29.45 88.86 29.33Q88.74 29.2 88.58 29.14Q88.45 29.08 88.29 29.08Q88.1 29.08 87.94 29.16Q87.81 29.22 87.7 29.33Q87.58 29.45 87.52 29.6Q87.46 29.74 87.46 29.91Q87.46 30.08 87.52 30.22Q87.58 30.36 87.7 30.48Q87.8 30.58 87.92 30.64ZM28.43 38.6Q28.68 38.44 28.9 38.23Q29.21 37.94 29.43 37.59Q29.92 36.8 29.92 35.7L29.92 29.2L28.64 29.2L28.64 35.65Q28.64 36.46 28.26 37.01Q28.15 37.16 28.02 37.3Q27.98 37.34 27.94 37.37Q27.33 37.9 26.25 37.9Q25.19 37.9 24.58 37.38Q24.53 37.34 24.49 37.3Q24.36 37.17 24.25 37.02Q23.87 36.46 23.87 35.65L23.87 29.2L22.57 29.2L22.57 35.7Q22.57 36.79 23.06 37.58Q23.28 37.94 23.6 38.23Q23.83 38.44 24.09 38.61Q24.99 39.18 26.25 39.18Q27.53 39.18 28.43 38.6ZM33.21 29.2L31.91 29.2L31.91 39L33.21 39L33.21 29.2ZM48.44 38.6Q48.69 38.44 48.91 38.23Q49.22 37.94 49.44 37.59Q49.93 36.8 49.93 35.7L49.93 29.2L48.64 29.2L48.64 35.65Q48.64 36.46 48.26 37.01Q48.16 37.16 48.02 37.3Q47.98 37.34 47.94 37.37Q47.33 37.9 46.26 37.9Q45.19 37.9 44.58 37.38Q44.54 37.34 44.5 37.3Q44.36 37.17 44.26 37.02Q43.88 36.46 43.88 35.65L43.88 29.2L42.58 29.2L42.58 35.7Q42.58 36.79 43.06 37.58Q43.29 37.94 43.61 38.23Q43.84 38.44 44.1 38.61Q45 39.18 46.26 39.18Q47.53 39.18 48.44 38.6ZM57.25 39L58.74 39L55.58 33.94L58.54 29.2L57.07 29.2L54.84 32.76L52.62 29.2L51.15 29.2L54.11 33.95L50.97 39L52.44 39L54.84 35.13L57.25 39ZM69.34 29.62Q68.44 29.2 67.34 29.2L63.52 29.2L63.52 39L67.34 39Q68.45 39 69.34 38.57Q70.07 38.21 70.67 37.58Q71.19 37.02 71.5 36.36Q71.99 35.35 71.99 34.1Q71.99 32.83 71.5 31.81Q71.18 31.17 70.67 30.62Q70.07 29.98 69.34 29.62ZM68.92 37.4Q68.23 37.76 67.34 37.76L64.82 37.76L64.82 30.43L67.34 30.43Q68.22 30.43 68.91 30.79Q69.4 31.04 69.79 31.48Q70.09 31.8 70.29 32.18Q70.75 33.01 70.75 34.1Q70.75 35.17 70.3 36Q70.1 36.38 69.79 36.72Q69.4 37.15 68.92 37.4ZM74.81 37.17Q74.43 36.72 74.3 36.06L80.17 36.06Q80.21 35.78 80.21 35.51Q80.21 34.61 79.88 33.87Q79.64 33.35 79.24 32.9Q78.83 32.44 78.32 32.18Q77.62 31.81 76.73 31.81Q75.64 31.81 74.83 32.28Q74.42 32.51 74.08 32.86Q73.71 33.25 73.47 33.7Q73.06 34.49 73.06 35.5Q73.06 36.51 73.48 37.3Q73.72 37.75 74.1 38.13Q74.41 38.44 74.78 38.66Q75.64 39.18 76.81 39.18Q78.03 39.18 78.89 38.61Q79.47 38.23 79.89 37.59L78.85 37.01Q78.63 37.37 78.31 37.6Q77.73 38.03 76.84 38.03Q75.99 38.03 75.37 37.65Q75.26 37.59 75.16 37.51Q74.97 37.36 74.81 37.17ZM82.43 34.15Q82.38 34.03 82.38 33.89Q82.38 33.65 82.48 33.47Q82.57 33.31 82.74 33.19Q82.77 33.18 82.79 33.16Q83.15 32.95 83.63 32.95Q84.32 32.95 84.72 33.29Q84.98 33.5 85.12 33.84L86.15 33.27Q85.98 32.94 85.74 32.68Q85.49 32.4 85.14 32.2Q85.06 32.15 84.98 32.11Q84.38 31.81 83.63 31.81Q82.78 31.81 82.15 32.19Q82 32.28 81.86 32.4Q81.49 32.71 81.31 33.09Q81.15 33.46 81.15 33.9Q81.15 34.44 81.39 34.83Q81.46 34.95 81.56 35.05Q81.75 35.26 81.99 35.42Q82.24 35.59 82.54 35.69Q83.11 35.89 83.68 36.04Q84.26 36.18 84.66 36.43Q84.93 36.59 85.02 36.82Q85.07 36.94 85.07 37.08Q85.07 37.36 84.94 37.55Q84.85 37.7 84.68 37.8Q84.29 38.03 83.68 38.03Q83.05 38.03 82.6 37.75Q82.59 37.74 82.58 37.73Q82.31 37.57 82.15 37.33Q82.02 37.15 81.95 36.94L80.9 37.54Q81 37.79 81.15 38.01Q81.45 38.43 81.93 38.73Q82.66 39.18 83.68 39.18Q84.77 39.18 85.49 38.66Q85.53 38.63 85.56 38.6Q85.91 38.33 86.1 37.97Q86.3 37.58 86.3 37.08Q86.3 36.51 86.04 36.1Q85.98 36 85.89 35.91Q85.68 35.67 85.43 35.51Q85.19 35.36 84.92 35.27Q84.34 35.07 83.77 34.93Q83.19 34.78 82.79 34.54Q82.52 34.38 82.43 34.15ZM97.77 32L96.56 32L96.56 33.2Q96.15 32.57 95.56 32.22Q94.87 31.81 93.93 31.81Q93.15 31.81 92.5 32.1Q91.89 32.36 91.4 32.87Q90.94 33.34 90.68 33.9Q90.36 34.6 90.36 35.45Q90.36 36.28 90.67 36.98Q90.93 37.56 91.4 38.04Q91.9 38.56 92.51 38.83Q93.16 39.11 93.93 39.11Q94.82 39.11 95.5 38.73Q96.12 38.38 96.56 37.71L96.56 38.7Q96.56 39.44 96.22 39.95Q96.1 40.12 95.94 40.27Q95.9 40.31 95.86 40.34Q95.25 40.84 94.22 40.84Q92.98 40.84 92.34 40.22Q92.1 39.99 91.94 39.67L90.88 40.27Q91.06 40.61 91.31 40.88Q91.66 41.27 92.17 41.53Q93.02 41.98 94.2 41.98Q95.19 41.98 95.98 41.59Q96.37 41.4 96.72 41.11Q97.05 40.84 97.28 40.5Q97.77 39.76 97.77 38.7L97.77 32ZM104.62 32.22Q103.99 31.81 103.1 31.81Q102.2 31.81 101.58 32.23Q101.14 32.51 100.83 33L100.83 32L99.61 32L99.61 39L100.83 39L100.83 35.29Q100.83 34.11 101.39 33.54Q101.55 33.38 101.73 33.27Q102.21 32.98 102.86 32.98Q103.54 32.98 103.97 33.3Q104.06 33.36 104.14 33.44Q104.18 33.49 104.22 33.54Q104.6 33.99 104.6 34.77L104.6 39L105.82 39L105.82 34.7Q105.82 33.55 105.27 32.81Q105.18 32.7 105.08 32.59Q104.87 32.37 104.62 32.22ZM108.87 37.17Q108.49 36.72 108.36 36.06L114.23 36.06Q114.27 35.78 114.27 35.51Q114.27 34.61 113.94 33.87Q113.7 33.35 113.3 32.9Q112.89 32.44 112.38 32.18Q111.68 31.81 110.79 31.81Q109.7 31.81 108.89 32.28Q108.48 32.51 108.14 32.86Q107.77 33.25 107.53 33.7Q107.12 34.49 107.12 35.5Q107.12 36.51 107.54 37.3Q107.78 37.75 108.16 38.13Q108.47 38.44 108.84 38.66Q109.7 39.18 110.87 39.18Q112.1 39.18 112.95 38.61Q113.54 38.23 113.95 37.59L112.91 37.01Q112.69 37.37 112.38 37.6Q111.8 38.03 110.9 38.03Q110.05 38.03 109.43 37.65Q109.32 37.59 109.23 37.51Q109.03 37.36 108.87 37.17ZM117.56 32.31Q117.14 32.63 116.89 33.17L116.89 32L115.67 32L115.67 39L116.89 39L116.89 35.29Q116.89 34.26 117.41 33.74Q117.47 33.68 117.54 33.62Q117.76 33.44 118.01 33.33Q118.49 33.12 119.08 33.14L119.08 31.87Q118.15 31.87 117.56 32.31ZM87.67 32L87.67 39L88.89 39L88.89 32L87.67 32ZM75.39 33.3Q75.96 32.96 76.73 32.96Q77.2 32.96 77.61 33.13Q77.92 33.26 78.2 33.48Q78.27 33.54 78.33 33.61Q78.84 34.11 78.98 34.99L74.3 34.99Q74.41 34.33 74.78 33.86Q74.92 33.67 75.1 33.52Q75.24 33.4 75.39 33.3ZM109.46 33.3Q110.02 32.96 110.79 32.96Q111.26 32.96 111.67 33.13Q111.98 33.26 112.26 33.48Q112.33 33.54 112.4 33.61Q112.9 34.11 113.04 34.99L108.36 34.99Q108.48 34.33 108.84 33.86Q108.98 33.67 109.16 33.52Q109.3 33.4 109.46 33.3ZM92.94 37.7Q92.59 37.53 92.29 37.23Q92 36.94 91.82 36.58Q91.58 36.08 91.58 35.45Q91.58 34.86 91.81 34.38Q91.98 34 92.29 33.69Q92.59 33.39 92.94 33.22Q93.45 32.98 94.07 32.98Q94.69 32.98 95.2 33.22Q95.55 33.39 95.85 33.69Q96.16 34 96.33 34.38Q96.56 34.86 96.56 35.45Q96.56 36.08 96.32 36.58Q96.14 36.94 95.85 37.23Q95.55 37.53 95.2 37.7Q94.69 37.95 94.07 37.95Q93.45 37.95 92.94 37.7Z" fill="#5E6971" fill-opacity="1.000000" fill-rule="evenodd"/>
</svg>
